<svg width="47" height="47" viewBox="0 0 47 47" fill="none" xmlns="http://www.w3.org/2000/svg">
<path d="M47 35.2501C47 36.6351 46.4498 37.9634 45.4704 38.9427C44.4911 39.9221 43.1628 40.4723 41.7778 40.4723H5.22222C3.8372 40.4723 2.50891 39.9221 1.52955 38.9427C0.550197 37.9634 0 36.6351 0 35.2501V11.7501C0 10.365 0.550197 9.03674 1.52955 8.05739C2.50891 7.07803 3.8372 6.52783 5.22222 6.52783H41.7778C43.1628 6.52783 44.4911 7.07803 45.4704 8.05739C46.4498 9.03674 47 10.365 47 11.7501V35.2501Z" fill="#009B3A"/>
<path d="M42.7282 23.5L23.5 38.023L4.27173 23.5L23.5 8.97571L42.7282 23.5Z" fill="#FEDF01"/>
<path d="M23.4686 31.832C28.1251 31.832 31.8999 28.0572 31.8999 23.4008C31.8999 18.7443 28.1251 14.9695 23.4686 14.9695C18.8122 14.9695 15.0374 18.7443 15.0374 23.4008C15.0374 28.0572 18.8122 31.832 23.4686 31.832Z" fill="#002776"/>
<path d="M16.0282 19.4358C15.5903 20.261 15.2938 21.1537 15.1509 22.0769C20.3666 21.6983 27.4453 24.5457 30.4833 28.076C31.0082 27.2874 31.3972 26.4049 31.6361 25.4596C27.8866 21.7936 21.3 19.4149 16.0282 19.4358Z" fill="#CBE9D4"/>
<path d="M15.6667 23.8042H16.9723V25.1098H15.6667V23.8042ZM16.9723 26.4153H18.2779V27.7209H16.9723V26.4153Z" fill="#88C9F9"/>
<path d="M19.5833 23.8042H20.8888V25.1098H19.5833V23.8042ZM22.1944 25.1098H23.4999V26.4153H22.1944V25.1098ZM27.4166 27.7209H28.7221V29.0264H27.4166V27.7209ZM23.4999 29.0264H24.8055V30.332H23.4999V29.0264ZM27.4166 21.1931H28.7221V22.4987H27.4166V21.1931Z" fill="#55ACEE"/>
<path d="M24.8057 26.4153H26.1112V27.7208H24.8057V26.4153Z" fill="#3B88C3"/>
</svg>
