<svg width="31" height="36" viewBox="0 0 31 36" fill="none" xmlns="http://www.w3.org/2000/svg">
<path d="M29.8341 17.9131C29.871 17.0095 29.4741 16.177 28.8023 15.7379L13.1495 5.48664C12.4488 5.01442 11.6047 5.06814 10.9155 5.59888C10.2137 6.13856 9.82438 7.4292 9.9884 8.36342L11.2631 15.6153C11.394 16.3589 11.9512 16.8847 12.6101 16.8845L21.4897 16.8935C21.9447 16.8851 22.3007 17.3149 22.2759 17.8427C22.2592 18.3616 21.8834 18.7817 21.4284 18.7902L12.5406 18.7731C11.8817 18.7715 11.2907 19.2943 11.1117 20.0376L9.35407 27.3043C9.14136 28.163 9.32939 29.0221 9.83379 29.631C9.89313 29.7026 9.95989 29.7832 10.0272 29.8459C10.6857 30.455 11.5694 30.5364 12.3397 30.0719L28.647 20.0681C29.3465 19.6483 29.7972 18.8167 29.8341 17.9131Z" fill="white"/>
</svg>
