<svg width="63" height="63" viewBox="0 0 63 63" fill="none" xmlns="http://www.w3.org/2000/svg">
<g clip-path="url(#clip0_113_2378)">
<path d="M5.28322 45.9305L11.2892 51.9365L9.67397 53.55L3.66797 47.5457L5.28322 45.9305Z" fill="#77B255"/>
<path d="M11.1335 51.7772L17.1378 57.7832L15.5225 59.3985L9.52002 53.3925L11.1335 51.7772Z" fill="#FFD983"/>
<path d="M10.9778 42.4147L16.9838 48.4207L15.3685 50.036L9.36255 44.03L10.9778 42.4147Z" fill="#FFAC33"/>
<path d="M15.7466 47.1835L21.7526 53.1895L20.1373 54.8047L14.1331 48.7987L15.7466 47.1835ZM22.5873 30.8052L28.5916 36.8112L26.9763 38.4265L20.9721 32.4205L22.5873 30.8052Z" fill="#EA596E"/>
<path d="M27.3543 35.5757L33.3603 41.58L31.745 43.1952L25.739 37.191L27.3543 35.5757Z" fill="#FFAC33"/>
<path d="M26.1975 25.1597L32.2035 31.1657L30.59 32.781L24.584 26.775L26.1975 25.1597Z" fill="#77B255"/>
<path d="M31.9846 30.9453L37.9906 36.9513L36.3754 38.5665L30.3694 32.5605L31.9846 30.9453Z" fill="#FFD983"/>
<path d="M30.8279 20.5292L36.8339 26.5352L35.2186 28.1487L29.2126 22.1445L30.8279 20.5292Z" fill="#FFAC33"/>
<path d="M36.6152 26.3165L42.6212 32.3207L41.006 33.936L35.0017 27.93L36.6152 26.3165ZM42.6772 8.67999L48.6832 14.686L47.068 16.2995L41.062 10.2952L42.6772 8.67999Z" fill="#EA596E"/>
<path d="M48.4646 14.4672L54.4706 20.4715L52.8554 22.0867L46.8494 16.0807L48.4646 14.4672Z" fill="#FFAC33"/>
<path d="M47.2727 3.94098L53.2787 9.94698L51.6635 11.5622L45.6575 5.55623L47.2727 3.94098Z" fill="#77B255"/>
<path d="M53.1299 9.79999L59.1359 15.8042L57.5206 17.4195L51.5146 11.4152L53.1299 9.79999Z" fill="#FFD983"/>
<path d="M43.6135 1.42101C39.2035 5.83101 39.0617 12.1748 39.4205 18.5815C40.2972 18.6305 41.174 18.6883 42.049 18.746C42.7315 18.7915 43.4052 18.8353 44.0772 18.8755C43.7307 13.125 43.729 7.85226 46.8877 4.69351C48.16 3.46326 48.559 1.80076 47.67 0.903012C46.7337 -0.0419883 44.9715 0.0332618 43.6135 1.42101Z" fill="#9266CC"/>
<path d="M23.0056 44.8875L22.7378 40.2325C22.6923 39.4537 22.6363 38.6592 22.6083 37.9015C22.0903 37.3835 18.2928 37.2907 17.9656 37.618C17.9883 38.388 18.0478 39.165 18.0898 39.9402C18.1388 40.8187 18.3103 43.9215 18.3506 44.5952C18.4451 46.1877 18.5186 47.7557 18.5011 49.2432C18.9543 49.6965 22.6503 50.008 23.1298 49.5267C23.144 47.9793 23.1025 46.4319 23.0056 44.8875Z" fill="#3B88C3"/>
<path d="M23.135 49.525L18.4993 49.2415C18.4538 53.1073 17.8273 56.4953 15.547 58.7755C15.1128 59.2095 14.8688 59.7981 14.8687 60.412C14.8685 61.0259 15.1122 61.6147 15.5462 62.0489C15.9801 62.4831 16.5688 62.7271 17.1827 62.7273C17.7965 62.7274 18.3853 62.4837 18.8195 62.0498C23.0598 57.8113 23.1368 49.4953 23.135 49.525Z" fill="#55ACEE"/>
<path d="M44.3696 23.5323C43.4928 23.4833 42.6143 23.4255 41.7393 23.3678C41.0586 23.3223 40.3831 23.2785 39.7128 23.2383C40.0593 28.987 40.0611 34.2615 36.9006 37.4203C33.7436 40.5773 28.4778 40.579 22.7361 40.2325C22.0606 40.1923 18.9578 39.9875 18.0881 39.9385C11.6708 39.578 5.31834 39.718 0.903087 44.1333C0.469126 44.5675 0.225422 45.1563 0.225586 45.7702C0.22575 46.384 0.469769 46.9727 0.903962 47.4067C1.33815 47.8406 1.92695 48.0843 2.54083 48.0842C3.15471 48.084 3.74338 47.84 4.17734 47.4058C7.33609 44.2488 12.6036 44.2453 18.3488 44.5918C19.0226 44.632 22.1306 44.8368 23.0038 44.8858C29.4123 45.2445 35.7596 45.1045 40.1731 40.6928C44.5848 36.2828 44.7283 29.939 44.3696 23.5323Z" fill="#9266CC"/>
<path d="M44.3696 23.5322C44.3206 22.6555 44.1158 19.5475 44.0756 18.8772C44.0282 18.1007 43.9909 17.3237 43.9636 16.5462C43.3756 16.5095 40.2886 16.3135 39.3208 16.261C39.3436 17.031 39.3768 17.8062 39.4188 18.5815C39.4678 19.4582 39.6726 22.5662 39.7128 23.2382C39.8091 24.8377 39.8721 26.3952 39.8546 27.8862C40.4373 27.923 43.5191 28.1172 44.4833 28.1697C44.5018 26.623 44.4639 25.0762 44.3696 23.5322Z" fill="#744EAA"/>
<path d="M62.2668 15.4473C61.5318 14.6843 59.8431 14.3955 58.2576 16.065C55.0988 19.2238 49.8278 19.2255 44.0756 18.8773C43.4036 18.837 40.2956 18.6305 39.4188 18.5815C33.0138 18.2228 26.6683 18.3663 22.2583 22.7763C18.3821 26.6525 17.8046 32.0233 17.9656 37.6163C18.9333 37.6688 22.0238 37.8648 22.6083 37.8998C22.4368 33.0785 22.8061 28.7753 25.5326 26.0488C28.6913 22.89 33.9641 22.89 39.7146 23.2365C40.3848 23.2768 43.4946 23.4815 44.3713 23.5305C50.7781 23.8893 57.1218 23.7475 61.5318 19.3375C63.0823 17.8168 63.0018 16.2103 62.2668 15.4473Z" fill="#55ACEE"/>
</g>
<defs>
<clipPath id="clip0_113_2378">
<rect width="63" height="63" fill="white"/>
</clipPath>
</defs>
</svg>
