<svg width="62" height="62" viewBox="0 0 62 62" fill="none" xmlns="http://www.w3.org/2000/svg">
<path d="M25.8333 19.375C25.8333 19.0325 25.9693 18.7039 26.2116 18.4617C26.4538 18.2195 26.7823 18.0834 27.1249 18.0834H37.4583C37.8008 18.0834 38.1294 18.2195 38.3716 18.4617C38.6138 18.7039 38.7499 19.0325 38.7499 19.375C38.7499 19.7176 38.6138 20.0462 38.3716 20.2884C38.1294 20.5306 37.8008 20.6667 37.4583 20.6667H27.1249C26.7823 20.6667 26.4538 20.5306 26.2116 20.2884C25.9693 20.0462 25.8333 19.7176 25.8333 19.375ZM27.1249 23.25C26.7823 23.25 26.4538 23.3861 26.2116 23.6284C25.9693 23.8706 25.8333 24.1991 25.8333 24.5417C25.8333 24.8843 25.9693 25.2128 26.2116 25.4551C26.4538 25.6973 26.7823 25.8334 27.1249 25.8334H37.4583C37.8008 25.8334 38.1294 25.6973 38.3716 25.4551C38.6138 25.2128 38.7499 24.8843 38.7499 24.5417C38.7499 24.1991 38.6138 23.8706 38.3716 23.6284C38.1294 23.3861 37.8008 23.25 37.4583 23.25H27.1249ZM25.8333 36.1667C25.8333 35.8241 25.9693 35.4956 26.2116 35.2534C26.4538 35.0111 26.7823 34.875 27.1249 34.875H37.4583C37.8008 34.875 38.1294 35.0111 38.3716 35.2534C38.6138 35.4956 38.7499 35.8241 38.7499 36.1667C38.7499 36.5093 38.6138 36.8378 38.3716 37.0801C38.1294 37.3223 37.8008 37.4584 37.4583 37.4584H27.1249C26.7823 37.4584 26.4538 37.3223 26.2116 37.0801C25.9693 36.8378 25.8333 36.5093 25.8333 36.1667ZM27.1249 40.0417C26.7823 40.0417 26.4538 40.1778 26.2116 40.42C25.9693 40.6623 25.8333 40.9908 25.8333 41.3334C25.8333 41.6759 25.9693 42.0045 26.2116 42.2467C26.4538 42.489 26.7823 42.625 27.1249 42.625H37.4583C37.8008 42.625 38.1294 42.489 38.3716 42.2467C38.6138 42.0045 38.7499 41.6759 38.7499 41.3334C38.7499 40.9908 38.6138 40.6623 38.3716 40.42C38.1294 40.1778 37.8008 40.0417 37.4583 40.0417H27.1249Z" fill="#FF7B69"/>
<path fill-rule="evenodd" clip-rule="evenodd" d="M12.9167 34.875C12.9167 34.5325 13.0528 34.2039 13.2951 33.9617C13.5373 33.7195 13.8658 33.5834 14.2084 33.5834H20.6667C21.0093 33.5834 21.3379 33.7195 21.5801 33.9617C21.8223 34.2039 21.9584 34.5325 21.9584 34.875V41.3334C21.9584 41.6759 21.8223 42.0045 21.5801 42.2467C21.3379 42.489 21.0093 42.625 20.6667 42.625H14.2084C13.8658 42.625 13.5373 42.489 13.2951 42.2467C13.0528 42.0045 12.9167 41.6759 12.9167 41.3334V34.875ZM15.5001 36.1667V40.0417H19.3751V36.1667H15.5001Z" fill="#FF7B69"/>
<path d="M22.8716 20.2882C23.1069 20.0446 23.2371 19.7184 23.2342 19.3797C23.2312 19.041 23.0954 18.717 22.8559 18.4776C22.6164 18.2381 22.2924 18.1022 21.9538 18.0993C21.6151 18.0963 21.2888 18.2265 21.0452 18.4618L16.7917 22.7153L15.1216 21.0452C14.878 20.8099 14.5517 20.6797 14.2131 20.6826C13.8744 20.6856 13.5504 20.8214 13.3109 21.0609C13.0715 21.3004 12.9356 21.6243 12.9327 21.963C12.9297 22.3017 13.0599 22.628 13.2952 22.8716L16.7917 26.3681L22.8716 20.2882Z" fill="#FF7B69"/>
<path fill-rule="evenodd" clip-rule="evenodd" d="M12.9167 7.75C11.5464 7.75 10.2322 8.29434 9.26328 9.26328C8.29434 10.2322 7.75 11.5464 7.75 12.9167V49.0833C7.75 50.4536 8.29434 51.7678 9.26328 52.7367C10.2322 53.7057 11.5464 54.25 12.9167 54.25H38.75C40.1203 54.25 41.4344 53.7057 42.4034 52.7367C43.3723 51.7678 43.9167 50.4536 43.9167 49.0833V12.9167C43.9167 11.5464 43.3723 10.2322 42.4034 9.26328C41.4344 8.29434 40.1203 7.75 38.75 7.75H12.9167ZM10.3333 12.9167C10.3333 12.2315 10.6055 11.5744 11.09 11.09C11.5744 10.6055 12.2315 10.3333 12.9167 10.3333H38.75C39.4351 10.3333 40.0922 10.6055 40.5767 11.09C41.0612 11.5744 41.3333 12.2315 41.3333 12.9167V49.0833C41.3333 49.7685 41.0612 50.4256 40.5767 50.91C40.0922 51.3945 39.4351 51.6667 38.75 51.6667H12.9167C12.2315 51.6667 11.5744 51.3945 11.09 50.91C10.6055 50.4256 10.3333 49.7685 10.3333 49.0833V12.9167ZM46.5 20.6667C46.5 19.639 46.9083 18.6533 47.635 17.9266C48.3617 17.1999 49.3473 16.7917 50.375 16.7917C51.4027 16.7917 52.3883 17.1999 53.115 17.9266C53.8417 18.6533 54.25 19.639 54.25 20.6667V46.8914L50.375 52.7039L46.5 46.8914V20.6667ZM50.375 19.375C50.0324 19.375 49.7039 19.5111 49.4617 19.7533C49.2194 19.9956 49.0833 20.3241 49.0833 20.6667V23.25H51.6667V20.6667C51.6667 20.3241 51.5306 19.9956 51.2883 19.7533C51.0461 19.5111 50.7176 19.375 50.375 19.375ZM50.375 48.0461L49.0833 46.1086V25.8333H51.6667V46.1086L50.375 48.0461Z" fill="#FF7B69"/>
</svg>
