<svg width="59" height="58" viewBox="0 0 59 58" fill="none" xmlns="http://www.w3.org/2000/svg">
<path d="M6.42934 36.9316C6.26221 37.3262 5.94247 37.6393 5.54045 37.8022C5.13844 37.9651 4.68708 37.9642 4.28567 37.7999C3.88426 37.6357 3.56568 37.3213 3.40002 36.9261C3.23436 36.5309 3.23518 36.0872 3.40231 35.6926L10.9691 15.4925C11.0496 15.2941 11.1694 15.1134 11.3216 14.9609C11.4739 14.8084 11.6554 14.6872 11.8557 14.6044C12.056 14.5215 12.2711 14.4787 12.4884 14.4783C12.7057 14.4779 12.9209 14.52 13.1216 14.6022C13.3222 14.6843 13.5041 14.8049 13.6569 14.9568C13.8097 15.1087 13.9302 15.289 14.0114 15.4872C14.0927 15.6853 14.133 15.8974 14.1301 16.111C14.1272 16.3246 14.0811 16.5355 13.9944 16.7314L6.42934 36.9316Z" fill="#66757F"/>
<path d="M22.8182 35.6926C22.9854 36.0872 22.9862 36.5309 22.8205 36.9261C22.6549 37.3213 22.3363 37.6356 21.9349 37.7999C21.5335 37.9642 21.0821 37.965 20.6801 37.8021C20.2781 37.6393 19.9583 37.3261 19.7912 36.9315L12.2277 16.7314C12.0606 16.3368 12.0598 15.8931 12.2255 15.4979C12.3911 15.1027 12.7097 14.7884 13.1111 14.6241C13.5125 14.4598 13.9639 14.459 14.3659 14.6218C14.7679 14.7847 15.0876 15.0978 15.2548 15.4924L22.8182 35.6926ZM39.2088 36.9315C39.0314 37.311 38.7112 37.6081 38.3156 37.7602C37.9199 37.9123 37.4797 37.9076 37.0875 37.7471C36.6953 37.5865 36.3817 37.2827 36.2128 36.8995C36.0439 36.5163 36.0327 36.0837 36.1817 35.6926L43.7469 15.4908C43.9142 15.0964 44.2341 14.7836 44.6361 14.621C45.0381 14.4585 45.4893 14.4595 45.8905 14.6241C46.2917 14.7886 46.61 15.103 46.7754 15.4982C46.9407 15.8934 46.9396 16.337 46.7722 16.7314L39.2088 36.9315Z" fill="#66757F"/>
<path d="M55.5961 35.6926C55.7633 36.0872 55.7641 36.5309 55.5984 36.9261C55.4328 37.3213 55.1142 37.6357 54.7128 37.7999C54.3114 37.9642 53.86 37.9651 53.458 37.8022C53.056 37.6393 52.7362 37.3262 52.5691 36.9316L45.0056 16.7314C44.919 16.5355 44.8729 16.3246 44.87 16.111C44.8671 15.8974 44.9074 15.6853 44.9887 15.4872C45.0699 15.289 45.1904 15.1087 45.3432 14.9568C45.4959 14.8049 45.6779 14.6843 45.8785 14.6022C46.0791 14.52 46.2944 14.4779 46.5117 14.4783C46.729 14.4787 46.9441 14.5215 47.1444 14.6044C47.3447 14.6872 47.5262 14.8084 47.6784 14.9609C47.8307 15.1134 47.9505 15.2941 48.031 15.4925L55.5961 35.6926Z" fill="#66757F"/>
<path d="M24.349 35.4445H1.87325C0.839111 35.4445 0 36.2677 0 37.286C0 41.3524 5.8705 44.6503 13.1111 44.6503C20.3517 44.6503 26.2222 41.3524 26.2222 37.286C26.2222 36.2677 25.3831 35.4445 24.349 35.4445ZM39.3333 54.7778H19.6667C19.232 54.7778 18.8151 54.6081 18.5078 54.3059C18.2004 54.0038 18.0278 53.594 18.0278 53.1667C18.0278 49.6077 23.1641 46.7222 29.5 46.7222C35.8359 46.7222 40.9722 49.6077 40.9722 53.1667C40.9722 53.594 40.7996 54.0038 40.4922 54.3059C40.1849 54.6081 39.768 54.7778 39.3333 54.7778ZM57.1267 35.4445H34.651C33.6152 35.4445 32.7778 36.2677 32.7778 37.286C32.7778 41.3524 38.6466 44.6503 45.8889 44.6503C53.1311 44.6503 59 41.3524 59 37.286C59 36.2677 58.1625 35.4445 57.1267 35.4445Z" fill="#FFAC33"/>
<path d="M31.1389 4.83328C31.1389 4.40599 30.9662 3.99619 30.6588 3.69405C30.3515 3.39191 29.9346 3.22217 29.5 3.22217C29.0653 3.22217 28.6485 3.39191 28.3411 3.69405C28.0338 3.99619 27.8611 4.40599 27.8611 4.83328V48.3333C27.8611 48.7606 28.0338 49.1704 28.3411 49.4725C28.6485 49.7746 29.0653 49.9444 29.5 49.9444C29.9346 49.9444 30.3515 49.7746 30.6588 49.4725C30.9662 49.1704 31.1389 48.7606 31.1389 48.3333V4.83328Z" fill="#FFAC33"/>
<path d="M29.4999 9.66661C31.3102 9.66661 32.7777 8.22397 32.7777 6.44439C32.7777 4.66481 31.3102 3.22217 29.4999 3.22217C27.6897 3.22217 26.2222 4.66481 26.2222 6.44439C26.2222 8.22397 27.6897 9.66661 29.4999 9.66661Z" fill="#FFAC33"/>
<path d="M13.111 19.3334C14.9213 19.3334 16.3888 17.8907 16.3888 16.1111C16.3888 14.3316 14.9213 12.8889 13.111 12.8889C11.3008 12.8889 9.83325 14.3316 9.83325 16.1111C9.83325 17.8907 11.3008 19.3334 13.111 19.3334Z" fill="#FFAC33"/>
<path d="M45.8889 19.3334C47.6991 19.3334 49.1666 17.8907 49.1666 16.1111C49.1666 14.3316 47.6991 12.8889 45.8889 12.8889C44.0786 12.8889 42.6111 14.3316 42.6111 16.1111C42.6111 17.8907 44.0786 19.3334 45.8889 19.3334Z" fill="#FFAC33"/>
<path d="M45.8889 16.1111C45.8889 17.8897 45.8889 16.1111 29.5 16.1111C13.1111 16.1111 13.1111 17.8897 13.1111 16.1111C13.1111 14.3324 18.0278 9.66663 29.5 9.66663C40.9722 9.66663 45.8889 14.3324 45.8889 16.1111Z" fill="#FFAC33"/>
</svg>
