<svg width="67" height="60" viewBox="0 0 67 60" fill="none" xmlns="http://www.w3.org/2000/svg">
<rect y="33" width="65" height="27" rx="13.5" fill="#2193E9"/>
<g clip-path="url(#clip0_204_790)">
<path d="M19.6943 34.7051L46.6049 7.80127L59.192 20.3917L32.2806 47.2955L19.6943 34.7051Z" fill="#FFCE31"/>
<path d="M64.7219 3.88125L63.1188 2.27813C60.0813 -0.759375 55.1875 -0.759375 52.0657 2.27813L46.5813 7.7625L59.2375 20.4188L64.7219 14.9344C67.7594 11.8969 67.7594 6.91875 64.7219 3.88125Z" fill="#ED4C5C"/>
<path d="M43.1912 11.2304L46.6505 7.76929L59.2393 20.358L55.7799 23.8183L43.1912 11.2304Z" fill="#93A2AA"/>
<path d="M44.5039 12.5424L47.9633 9.08215L57.8681 18.9861L54.407 22.4455L44.5039 12.5424Z" fill="#C7D3D8"/>
<path d="M19.6655 34.6781L14.1812 49.0219L17.978 52.8187L32.3218 47.3344L19.6655 34.6781Z" fill="#FED0AC"/>
<path d="M13.2531 51.5531C12.4937 53.5781 13.5062 54.5063 15.5312 53.7469L22.45 51.1313L15.9531 44.6344L13.2531 51.5531Z" fill="#333333"/>
<path d="M19.6572 34.7414L43.1641 11.2345L47.3407 15.4111L23.8338 38.9179L19.6572 34.7414Z" fill="#FFDF85"/>
<path d="M28.1064 43.151L51.6133 19.6442L55.7899 23.8207L32.283 47.3276L28.1064 43.151Z" fill="#FF8736"/>
</g>
<defs>
<clipPath id="clip0_204_790">
<rect width="54" height="54" fill="white" transform="translate(13)"/>
</clipPath>
</defs>
</svg>
