<svg width="54" height="54" viewBox="0 0 54 54" fill="none" xmlns="http://www.w3.org/2000/svg">
<g clip-path="url(#clip0_75_273)">
<path d="M6.69434 34.7051L33.6049 7.80133L46.192 20.3918L19.2806 47.2956L6.69434 34.7051Z" fill="#FFCE31"/>
<path d="M51.7219 3.88125L50.1188 2.27813C47.0813 -0.759375 42.1875 -0.759375 39.0657 2.27813L33.5813 7.7625L46.2375 20.4188L51.7219 14.9344C54.7594 11.8969 54.7594 6.91875 51.7219 3.88125Z" fill="#ED4C5C"/>
<path d="M30.1912 11.2303L33.6505 7.76923L46.2393 20.358L42.7799 23.8182L30.1912 11.2303Z" fill="#93A2AA"/>
<path d="M31.5039 12.5424L34.9633 9.08215L44.8681 18.9861L41.407 22.4455L31.5039 12.5424Z" fill="#C7D3D8"/>
<path d="M6.66553 34.6781L1.18115 49.0219L4.97803 52.8187L19.3218 47.3344L6.66553 34.6781Z" fill="#FED0AC"/>
<path d="M0.253101 51.5531C-0.506274 53.5781 0.506226 54.5063 2.53123 53.7469L9.44998 51.1313L2.9531 44.6344L0.253101 51.5531Z" fill="#333333"/>
<path d="M6.65723 34.7414L30.1641 11.2346L34.3407 15.4111L10.8338 38.918L6.65723 34.7414Z" fill="#FFDF85"/>
<path d="M15.1064 43.151L38.6133 19.6442L42.7899 23.8207L19.283 47.3276L15.1064 43.151Z" fill="#FF8736"/>
</g>
<defs>
<clipPath id="clip0_75_273">
<rect width="54" height="54" fill="white"/>
</clipPath>
</defs>
</svg>
