<svg width="59" height="59" viewBox="0 0 59 59" fill="none" xmlns="http://www.w3.org/2000/svg">
<path d="M29.6125 2.58068C27.6766 2.58068 25.8686 3.46222 24.3274 4.90577C22.7865 6.34965 21.4673 8.36049 20.3676 10.7962C20.1371 11.3065 19.9171 11.8368 19.7066 12.3838C19.1392 12.2937 18.5693 12.2197 17.9977 12.1618C17.3328 12.0956 16.684 12.0544 16.0537 12.0397C14.1616 11.9948 12.4322 12.1866 10.9166 12.6461C8.89581 13.2588 7.22836 14.3841 6.2604 16.0605C5.29243 17.7371 5.15184 19.7438 5.63156 21.8003C6.11151 23.8566 7.19322 26.0045 8.75292 28.1748C9.08018 28.63 9.4298 29.0865 9.79878 29.543C9.4378 29.9886 9.0895 30.4444 8.7543 30.9097C7.19449 33.0799 6.11278 35.2277 5.63294 37.2842C5.15311 39.3407 5.29381 41.3474 6.26178 43.0237C7.22975 44.7003 8.89719 45.8256 10.9179 46.4381C12.9388 47.0509 15.3398 47.1879 17.9991 46.9223C18.5566 46.8665 19.1261 46.7921 19.7055 46.7008C19.9111 47.2371 20.1319 47.7675 20.3676 48.2913C21.4673 50.7273 22.7864 52.7378 24.3274 54.1816C25.8684 55.6253 27.6767 56.507 29.6125 56.507C31.5482 56.507 33.3565 55.6253 34.8975 54.1816C36.4384 52.7377 37.7576 50.7272 38.8573 48.2913C39.093 47.7676 39.3138 47.2373 39.5195 46.701C40.0982 46.7921 40.6672 46.8666 41.2242 46.9223C43.8836 47.1878 46.2848 47.0508 48.3054 46.4381C50.3264 45.8255 51.9938 44.7001 52.9618 43.0237C53.9297 41.347 54.0703 39.3406 53.5906 37.2842C53.1107 35.2278 52.0288 33.08 50.4693 30.9097C50.1339 30.4444 49.7856 29.9887 49.4247 29.543C49.7862 29.097 50.135 28.6408 50.4705 28.1749C52.0302 26.0046 53.1119 23.8568 53.5918 21.8004C54.0716 19.7439 53.9309 17.7372 52.9629 16.0606C51.995 14.3843 50.3275 13.2589 48.3068 12.6462C46.7912 12.1867 45.0618 11.9949 43.1699 12.0397C42.5391 12.0544 41.8902 12.0956 41.2254 12.1618C40.6677 12.2176 40.0976 12.2924 39.518 12.3837C39.3125 11.8484 39.0921 11.3191 38.8569 10.7962C37.7572 8.36015 36.4381 6.34931 34.8971 4.90565C33.356 3.46199 31.5478 2.58057 29.6121 2.58057L29.6125 2.58068ZM29.6125 4.73407C30.9037 4.73407 32.1698 5.30137 33.4252 6.47756C34.6804 7.65353 35.8793 9.43367 36.8945 11.6824C37.0596 12.0492 37.2166 12.4197 37.3654 12.7936C34.8974 13.3423 32.2835 14.1842 29.6118 15.3091C26.9407 14.1844 24.3272 13.3428 21.8597 12.794C22.012 12.4126 22.1685 12.0408 22.3305 11.6822C23.3457 9.43344 24.5446 7.6533 25.8 6.4771C27.0554 5.30114 28.3213 4.73384 29.6128 4.73384L29.6125 4.73407ZM15.3707 14.1899C15.5786 14.1878 15.7898 14.1892 16.0043 14.194C16.5758 14.2067 17.1701 14.2436 17.7838 14.305C18.1763 14.3442 18.5775 14.3943 18.985 14.4534C18.2261 16.8649 17.6483 19.5493 17.2863 22.4253C14.976 24.1769 12.9398 26.0199 11.2307 27.8832C10.9805 27.5668 10.7375 27.2449 10.5016 26.9177C9.06174 24.9143 8.1197 22.9859 7.72871 21.3106C7.33784 19.6354 7.47981 18.2554 8.12535 17.1372C8.77089 16.019 9.89535 15.2062 11.5414 14.7071C12.6217 14.3795 13.9152 14.203 15.3706 14.1897L15.3707 14.1899ZM43.853 14.1899C45.3084 14.2031 46.6019 14.3796 47.6822 14.7073C49.3284 15.2062 50.4524 16.019 51.0981 17.1372C51.7436 18.2554 51.8857 19.6355 51.4948 21.3106C51.1042 22.9858 50.1616 24.9143 48.722 26.9177C48.4861 27.2449 48.2431 27.5669 47.9931 27.8834C46.2842 26.0204 44.2486 24.1778 41.939 22.4265C41.5772 19.55 40.9987 16.8653 40.2398 14.4534C40.6469 14.3943 41.0476 14.3439 41.4397 14.305C42.0313 14.245 42.625 14.208 43.2194 14.1939C43.4306 14.1891 43.6418 14.1877 43.853 14.1896V14.1899ZM38.1005 14.8398C38.6732 16.6188 39.1474 18.5817 39.5012 20.6822C38.358 19.9099 37.1878 19.1783 35.9928 18.4887C34.7988 17.7989 33.5808 17.1516 32.341 16.5478C34.3369 15.8039 36.2737 15.2333 38.1005 14.84V14.8398ZM21.1245 14.8401C22.9509 15.2335 24.8875 15.8042 26.8827 16.5479C25.643 17.1517 24.425 17.799 23.231 18.4887C22.0366 19.178 20.8668 19.9092 19.7239 20.6809C20.0777 18.581 20.5518 16.6186 21.1245 14.8401ZM29.6118 17.6588C31.3642 18.4317 33.143 19.3301 34.9161 20.3539C36.6899 21.3781 38.3581 22.4696 39.904 23.6012C40.111 25.5056 40.2223 27.4959 40.2223 29.5438C40.2223 31.5906 40.1113 33.58 39.9045 35.4837C38.3586 36.615 36.6906 37.7063 34.9173 38.7303C33.1439 39.7541 31.3647 40.6529 29.6119 41.4258C27.859 40.6529 26.0798 39.7541 24.3063 38.7303C22.5334 37.7067 20.8661 36.6157 19.3208 35.4848C19.114 33.5808 19.0028 31.5911 19.0028 29.5437C19.0028 27.4954 19.114 25.5049 19.3211 23.6002C20.8667 22.469 22.5344 21.3776 24.3076 20.3539C26.0808 19.3302 27.8596 18.4317 29.6118 17.659V17.6588ZM29.7575 20.8987L23.5922 24.7034L29.7575 28.5084L35.9228 24.7034L29.7575 20.8986V20.8987ZM16.9941 25.4083C16.8972 26.7845 16.8489 28.1638 16.8493 29.5435C16.8493 30.9491 16.8988 32.3289 16.9942 33.6762C15.3522 32.3199 13.8895 30.9279 12.6353 29.5424C13.8895 28.1571 15.352 26.7648 16.9941 25.4083ZM42.231 25.4094C43.8723 26.7657 45.3346 28.1574 46.5884 29.5425C45.3346 30.9276 43.8723 32.3193 42.231 33.6753C42.3278 32.3002 42.3761 30.9221 42.3758 29.5436C42.3758 28.1372 42.3262 26.7572 42.2309 25.4094H42.231ZM22.2033 26.3767V33.8897L28.6783 37.8857V30.373L22.2033 26.3767ZM37.3057 26.3806L30.8322 30.3758V37.8849L37.3058 33.8897V26.3806H37.3057ZM11.2305 31.202C12.9398 33.0654 14.9758 34.908 17.2858 36.6595C17.6476 39.5352 18.2256 42.2193 18.9843 44.6309C18.5776 44.6896 18.177 44.74 17.7852 44.7792C15.3303 45.0243 13.1889 44.876 11.5427 44.377C9.8965 43.878 8.77251 43.0649 8.12685 41.9467C7.4813 40.8284 7.33922 39.4484 7.7301 37.7733C8.12097 36.0981 9.06313 34.1696 10.503 32.1662C10.7383 31.8394 10.9808 31.518 11.2305 31.202ZM47.993 31.2024C48.2473 31.525 48.4908 31.8465 48.7205 32.1662C50.1602 34.1695 51.1024 36.098 51.4932 37.7731C51.8841 39.4483 51.7424 40.8282 51.0968 41.9466C50.4511 43.0648 49.3268 43.8779 47.6806 44.3769C46.0346 44.8758 43.8935 45.0242 41.4386 44.779C41.0383 44.7384 40.6389 44.6891 40.2407 44.631C40.9995 42.2189 41.5774 39.5342 41.9393 36.6579C44.2486 34.9068 46.2843 33.0647 47.9931 31.2021L47.993 31.2024ZM39.5017 38.4026C39.1479 40.5028 38.6739 42.4657 38.1012 44.2446C36.2742 43.8513 34.3373 43.2803 32.3413 42.5366C33.5814 41.9325 34.7998 41.285 35.9942 40.5951C37.1889 39.9057 38.3588 39.1744 39.5019 38.4026H39.5017ZM19.7235 38.4037C20.8659 39.1752 22.0353 39.9061 23.2293 40.5951C24.4238 41.2849 25.6422 41.9325 26.8823 42.5366C24.8869 43.2802 22.9505 43.8511 21.1237 44.2444C20.551 42.4658 20.0772 40.5034 19.7235 38.4037ZM29.6763 38.5017L29.7546 38.5501L29.8326 38.5017H29.6764H29.6763ZM29.6117 43.7756C32.284 44.9003 34.898 45.7421 37.3663 46.2907C37.2173 46.6656 37.06 47.0371 36.8945 47.405C35.8793 49.6536 34.6804 51.4336 33.4251 52.6098C32.1698 53.7859 30.9037 54.3533 29.6125 54.3533C28.3212 54.3533 27.0551 53.7859 25.7999 52.6098C24.5446 51.4337 23.3457 49.6536 22.3305 47.4049C22.1651 47.037 22.0078 46.6654 21.8586 46.2906C24.3265 45.7418 26.9402 44.9002 29.6119 43.7756H29.6117Z" fill="white"/>
</svg>
