<svg width="65" height="65" viewBox="0 0 65 65" fill="none" xmlns="http://www.w3.org/2000/svg">
<path d="M0 32.5C0 14.5507 14.5507 0 32.5 0C50.4493 0 65 14.5507 65 32.5C65 50.4493 50.4493 65 32.5 65C14.5507 65 0 50.4493 0 32.5Z" fill="#2193E9"/>
<path d="M32.6125 5.58068C30.6766 5.58068 28.8686 6.46222 27.3274 7.90577C25.7865 9.34965 24.4673 11.3605 23.3676 13.7962C23.1371 14.3065 22.9171 14.8368 22.7066 15.3838C22.1392 15.2937 21.5693 15.2197 20.9977 15.1618C20.3328 15.0956 19.684 15.0544 19.0537 15.0397C17.1616 14.9948 15.4322 15.1866 13.9166 15.6461C11.8958 16.2588 10.2284 17.3841 9.2604 19.0605C8.29243 20.7371 8.15184 22.7438 8.63156 24.8003C9.11151 26.8566 10.1932 29.0045 11.7529 31.1748C12.0802 31.63 12.4298 32.0865 12.7988 32.543C12.4378 32.9886 12.0895 33.4443 11.7543 33.9097C10.1945 36.0799 9.11278 38.2277 8.63294 40.2842C8.15311 42.3407 8.29381 44.3474 9.26178 46.0237C10.2297 47.7003 11.8972 48.8256 13.9179 49.4381C15.9388 50.0509 18.3398 50.1879 20.9991 49.9223C21.5566 49.8665 22.1261 49.7921 22.7055 49.7008C22.9111 50.2371 23.1319 50.7675 23.3676 51.2913C24.4673 53.7273 25.7864 55.7378 27.3274 57.1816C28.8684 58.6253 30.6767 59.507 32.6125 59.507C34.5482 59.507 36.3565 58.6253 37.8975 57.1816C39.4384 55.7377 40.7576 53.7272 41.8573 51.2913C42.093 50.7676 42.3138 50.2373 42.5195 49.701C43.0982 49.7921 43.6672 49.8666 44.2242 49.9223C46.8836 50.1878 49.2848 50.0508 51.3054 49.4381C53.3264 48.8255 54.9938 47.7001 55.9618 46.0237C56.9297 44.347 57.0703 42.3406 56.5906 40.2842C56.1107 38.2278 55.0288 36.08 53.4693 33.9097C53.1339 33.4444 52.7856 32.9887 52.4247 32.543C52.7862 32.097 53.135 31.6408 53.4705 31.1749C55.0302 29.0046 56.1119 26.8568 56.5918 24.8004C57.0716 22.7439 56.9309 20.7372 55.9629 19.0606C54.995 17.3843 53.3275 16.2589 51.3068 15.6462C49.7912 15.1867 48.0618 14.9949 46.1699 15.0397C45.5391 15.0544 44.8902 15.0956 44.2254 15.1618C43.6677 15.2176 43.0976 15.2924 42.518 15.3837C42.3125 14.8484 42.0921 14.3191 41.8569 13.7962C40.7572 11.3601 39.4381 9.34931 37.8971 7.90565C36.356 6.46199 34.5478 5.58057 32.6121 5.58057L32.6125 5.58068ZM32.6125 7.73407C33.9037 7.73407 35.1698 8.30137 36.4252 9.47756C37.6804 10.6535 38.8793 12.4337 39.8945 14.6824C40.0596 15.0492 40.2166 15.4197 40.3654 15.7936C37.8974 16.3423 35.2835 17.1842 32.6118 18.3091C29.9407 17.1844 27.3272 16.3428 24.8597 15.794C25.012 15.4126 25.1685 15.0408 25.3305 14.6822C26.3457 12.4334 27.5446 10.6533 28.8 9.4771C30.0554 8.30114 31.3213 7.73384 32.6128 7.73384L32.6125 7.73407ZM18.3707 17.1899C18.5786 17.1878 18.7898 17.1892 19.0043 17.194C19.5758 17.2067 20.1701 17.2436 20.7838 17.305C21.1763 17.3442 21.5775 17.3943 21.985 17.4534C21.2261 19.8649 20.6483 22.5493 20.2863 25.4253C17.976 27.1769 15.9398 29.0199 14.2307 30.8832C13.9805 30.5668 13.7375 30.2449 13.5016 29.9177C12.0617 27.9143 11.1197 25.9859 10.7287 24.3106C10.3378 22.6354 10.4798 21.2554 11.1253 20.1372C11.7709 19.019 12.8953 18.2062 14.5414 17.7071C15.6217 17.3795 16.9152 17.203 18.3706 17.1897L18.3707 17.1899ZM46.853 17.1899C48.3084 17.2031 49.6019 17.3796 50.6822 17.7073C52.3284 18.2062 53.4524 19.019 54.0981 20.1372C54.7436 21.2554 54.8857 22.6355 54.4948 24.3106C54.1042 25.9858 53.1616 27.9143 51.722 29.9177C51.4861 30.2449 51.2431 30.5669 50.9931 30.8834C49.2842 29.0204 47.2486 27.1778 44.939 25.4265C44.5772 22.55 43.9987 19.8653 43.2398 17.4534C43.6469 17.3943 44.0476 17.3439 44.4397 17.305C45.0313 17.245 45.625 17.208 46.2194 17.1939C46.4306 17.1891 46.6418 17.1877 46.853 17.1896V17.1899ZM41.1005 17.8398C41.6732 19.6188 42.1474 21.5817 42.5012 23.6822C41.358 22.9099 40.1878 22.1783 38.9928 21.4887C37.7988 20.7989 36.5808 20.1516 35.341 19.5478C37.3369 18.8039 39.2737 18.2333 41.1005 17.84V17.8398ZM24.1245 17.8401C25.9509 18.2335 27.8875 18.8042 29.8827 19.5479C28.643 20.1517 27.425 20.799 26.231 21.4887C25.0366 22.178 23.8668 22.9092 22.7239 23.6809C23.0777 21.581 23.5518 19.6186 24.1245 17.8401ZM32.6118 20.6588C34.3642 21.4317 36.143 22.3301 37.9161 23.3539C39.6899 24.3781 41.3581 25.4696 42.904 26.6012C43.111 28.5056 43.2223 30.4959 43.2223 32.5438C43.2223 34.5906 43.1113 36.58 42.9045 38.4837C41.3586 39.615 39.6906 40.7063 37.9173 41.7303C36.1439 42.7541 34.3647 43.6529 32.6119 44.4258C30.859 43.6529 29.0798 42.7541 27.3063 41.7303C25.5334 40.7067 23.8661 39.6157 22.3208 38.4848C22.114 36.5808 22.0028 34.5911 22.0028 32.5437C22.0028 30.4954 22.114 28.5049 22.3211 26.6002C23.8667 25.469 25.5344 24.3776 27.3076 23.3539C29.0808 22.3302 30.8596 21.4317 32.6118 20.659V20.6588ZM32.7575 23.8987L26.5922 27.7034L32.7575 31.5084L38.9228 27.7034L32.7575 23.8986V23.8987ZM19.9941 28.4083C19.8972 29.7845 19.8489 31.1638 19.8493 32.5435C19.8493 33.9491 19.8988 35.3289 19.9942 36.6762C18.3522 35.3199 16.8895 33.9279 15.6353 32.5424C16.8895 31.1571 18.352 29.7648 19.9941 28.4083ZM45.231 28.4094C46.8723 29.7657 48.3346 31.1574 49.5884 32.5425C48.3346 33.9276 46.8723 35.3193 45.231 36.6753C45.3278 35.3002 45.3761 33.9221 45.3758 32.5436C45.3758 31.1372 45.3262 29.7572 45.2309 28.4094H45.231ZM25.2033 29.3767V36.8897L31.6783 40.8857V33.373L25.2033 29.3767ZM40.3057 29.3806L33.8322 33.3758V40.8849L40.3058 36.8897V29.3806H40.3057ZM14.2305 34.202C15.9398 36.0654 17.9758 37.908 20.2858 39.6595C20.6476 42.5352 21.2256 45.2193 21.9843 47.6309C21.5776 47.6896 21.177 47.74 20.7852 47.7792C18.3303 48.0243 16.1889 47.876 14.5427 47.377C12.8965 46.878 11.7725 46.0649 11.1268 44.9467C10.4813 43.8284 10.3392 42.4484 10.7301 40.7733C11.121 39.0981 12.0631 37.1696 13.503 35.1662C13.7383 34.8394 13.9808 34.518 14.2305 34.202ZM50.993 34.2024C51.2473 34.525 51.4908 34.8465 51.7205 35.1662C53.1602 37.1695 54.1024 39.098 54.4932 40.7731C54.8841 42.4483 54.7424 43.8282 54.0968 44.9466C53.451 46.0648 52.3268 46.8779 50.6806 47.3769C49.0346 47.8758 46.8935 48.0242 44.4386 47.779C44.0382 47.7384 43.6389 47.6891 43.2407 47.631C43.9995 45.2189 44.5774 42.5342 44.9393 39.6579C47.2486 37.9068 49.2843 36.0647 50.9931 34.2021L50.993 34.2024ZM42.5017 41.4026C42.1479 43.5028 41.6739 45.4657 41.1012 47.2446C39.2742 46.8513 37.3373 46.2803 35.3413 45.5366C36.5814 44.9325 37.7998 44.285 38.9942 43.5951C40.1889 42.9057 41.3588 42.1744 42.5019 41.4026H42.5017ZM22.7235 41.4037C23.8659 42.1752 25.0353 42.9061 26.2293 43.5951C27.4238 44.2849 28.6422 44.9325 29.8823 45.5366C27.8869 46.2802 25.9505 46.8511 24.1237 47.2444C23.551 45.4658 23.0772 43.5034 22.7235 41.4037ZM32.6763 41.5017L32.7546 41.5501L32.8326 41.5017H32.6764H32.6763ZM32.6117 46.7756C35.284 47.9003 37.898 48.7421 40.3663 49.2907C40.2173 49.6656 40.06 50.0371 39.8945 50.405C38.8793 52.6536 37.6804 54.4336 36.4251 55.6098C35.1698 56.7859 33.9037 57.3533 32.6125 57.3533C31.3212 57.3533 30.0551 56.7859 28.7999 55.6098C27.5446 54.4337 26.3457 52.6536 25.3305 50.4049C25.1651 50.0369 25.0078 49.6654 24.8586 49.2906C27.3265 48.7418 29.9402 47.9002 32.6119 46.7756H32.6117Z" fill="white"/>
</svg>
