<svg width="67" height="67" viewBox="0 0 67 67" fill="none" xmlns="http://www.w3.org/2000/svg">
<path d="M5.27625 14.3213L18.7809 10.4688L19.8906 34.5469L18.7809 58.6041L5.96719 62.7706C5.75665 62.8233 5.53689 62.8274 5.32451 62.7827C5.11214 62.738 4.91271 62.6456 4.74129 62.5125C4.56987 62.3794 4.43094 62.2091 4.335 62.0144C4.23906 61.8197 4.18863 61.6058 4.1875 61.3887V15.7031C4.1875 15.0541 4.64812 14.4888 5.27625 14.3213ZM33.4581 14.6562L48.0934 10.4688L49.2031 34.5469L48.1353 58.625L33.4581 62.8125L31.4062 38.7344L33.4581 14.6562Z" fill="white"/>
<path d="M33.4582 14.6562L18.781 10.4688V58.6041L33.4582 62.8125V14.6562ZM61.5563 14.3213L48.0935 10.4688V58.625L60.8444 62.7706C61.7448 63.0009 62.6241 62.31 62.6241 61.3887V15.7031C62.6241 15.0541 62.1844 14.4888 61.5563 14.3213Z" fill="#E6E6E6"/>
<path d="M8.27021 17.4619L18.7808 14.6562L20.9374 34.5469L18.7808 54.4375L9.02395 57.4106C8.81075 57.4695 8.58682 57.4785 8.36959 57.4368C8.15235 57.3951 7.94767 57.3038 7.77144 57.1702C7.59521 57.0365 7.45219 56.8639 7.3535 56.666C7.2548 56.468 7.20309 56.25 7.20239 56.0288V18.8438C7.20239 18.1947 7.64208 17.6294 8.27021 17.4619ZM33.3743 18.8438L48.0933 14.6981L50.2499 34.5469L48.0933 54.4166L33.3743 58.6041L31.4061 38.7344L33.3743 18.8438Z" fill="#00A6ED"/>
<path d="M33.3744 18.8437L18.781 14.6981V54.4166L33.3744 58.6041V18.8437ZM58.4994 17.4619L48.0935 14.6981V54.4794L57.7457 57.4525C58.6669 57.7037 59.5673 57.0128 59.5673 56.0706V18.8437C59.5673 18.1947 59.1276 17.6294 58.4994 17.4619Z" fill="#0074BA"/>
<path d="M29.9824 36.9338L31.0921 35.8241C31.2429 35.6922 31.4271 35.6126 31.5988 35.5351L31.6574 35.51H32.5578C33.0184 35.51 33.3953 35.1331 33.3953 34.6725V34.2747C33.3953 33.8141 33.0184 33.4372 32.5578 33.4372H32.1599C31.6993 33.4372 31.3224 33.0603 31.3224 32.5997V30.1081C31.3224 29.6475 31.6993 29.2706 32.1599 29.2706H32.5578C33.0184 29.2706 33.3953 28.8938 33.3953 28.4331V28.0353C33.3953 27.5747 33.7721 27.1978 34.2328 27.1978H37.2478C37.4571 27.1978 37.6665 27.135 37.8131 26.9884L41.4771 23.7013C41.6446 23.5338 41.7493 23.3034 41.7493 23.0731V23.0103C41.7493 21.8588 42.6915 20.9166 43.8431 20.9166H44.6806C45.3715 20.9166 45.9368 21.4819 45.9368 22.1728C45.9368 22.6334 46.3137 23.0103 46.7743 23.0103H49.2659C49.7265 23.0103 50.1034 22.6334 50.1034 22.1728V21.775C50.1034 21.3144 50.4803 20.9375 50.9409 20.9375H51.0246C52.8043 20.9375 54.2699 22.3822 54.2699 24.1828V28.2447C54.2699 28.8309 53.8093 29.2916 53.2231 29.2916C52.6368 29.2916 52.1762 28.8309 52.1762 28.2447V28.0353C52.1762 27.5747 51.7993 27.1978 51.3387 27.1978H50.9409C50.4803 27.1978 50.1034 27.5747 50.1034 28.0353V30.5269C50.1034 30.9875 50.4803 31.3644 50.9409 31.3644C51.0779 31.3647 51.2127 31.3985 51.3336 31.463C51.4544 31.5276 51.5576 31.6207 51.6341 31.7344C51.7105 31.8481 51.758 31.9788 51.7722 32.115C51.7864 32.2513 51.7669 32.3889 51.7156 32.5159L49.8731 37.1013C49.7474 37.4153 49.4334 37.6247 49.0984 37.6247H46.7534C46.2928 37.6247 45.9159 37.2478 45.9159 36.7872V36.3894C45.9159 35.9288 45.539 35.5519 45.0784 35.5519H44.6806C44.2199 35.5519 43.8431 35.9288 43.8431 36.3894V36.7872C43.8431 37.2478 43.4662 37.6247 43.0056 37.6247H42.6078C42.1471 37.6247 41.7703 37.2478 41.7703 36.7872V36.3894C41.7703 35.9288 41.3934 35.5519 40.9328 35.5519H40.5349C40.0743 35.5519 39.6974 35.9288 39.6974 36.3894V37.4363C39.6974 37.5619 39.6765 37.6875 39.6137 37.8131L37.7084 41.6447C37.6456 41.7703 37.6246 41.8959 37.6246 42.0216V44.6178C37.6246 45.5181 37.2687 46.3766 36.6406 47.0047L35.7821 47.8631C35.7031 47.9438 35.6086 48.0076 35.5042 48.0508C35.3999 48.094 35.2879 48.1156 35.1749 48.1144H34.2746C33.814 48.1144 33.4371 47.7375 33.4371 47.2769V42.6916C33.4371 42.2309 33.0603 41.8541 32.5996 41.8541H31.6993C31.5864 41.8553 31.4744 41.8337 31.3701 41.7905C31.2657 41.7473 31.1712 41.6835 31.0921 41.6028L29.9824 40.4931C29.5218 40.0325 29.2496 39.3834 29.2496 38.7134C29.2496 38.0434 29.5009 37.4153 29.9824 36.9338ZM22.9684 49.1822C22.9684 49.7684 22.5078 50.2291 21.9215 50.2291C21.3562 50.2291 20.8746 49.7684 20.9165 49.245V46.3766C20.9169 46.2912 20.9005 46.2065 20.8682 46.1275C20.8359 46.0484 20.7882 45.9765 20.7281 45.9159L19.9324 45.1203C19.2206 44.4084 18.8228 43.4244 18.8228 42.4194V40.0744C18.8232 39.989 18.8068 39.9043 18.7744 39.8253C18.7421 39.7462 18.6945 39.6744 18.6343 39.6138L16.0171 36.9966C15.7366 36.716 15.2822 36.404 14.7902 36.0669C13.7454 35.3488 12.5415 34.5238 12.5415 33.6675V28.7263C12.5415 28.3243 12.887 27.9578 13.1403 27.6898C13.3999 27.4114 13.5633 27.2397 13.1487 27.2397C12.7509 27.2397 12.374 27.4072 12.1018 27.6794L9.46369 30.3175C9.04494 30.7153 8.354 30.4431 8.354 29.8569V29.5847C8.354 29.4172 8.41682 29.2497 8.54244 29.1241L9.04494 28.6216C9.92432 27.7422 10.4268 26.5278 10.4268 25.2716V24.4969C10.4268 23.7013 11.0759 23.0522 11.8715 23.0522H13.1696C13.9653 23.0522 14.6143 23.7013 14.6143 24.4969C14.6143 24.8528 14.9074 25.1459 15.2634 25.1459H15.4728C16.4359 25.1459 17.3571 24.7481 18.0062 24.0363L19.3043 22.6334C20.3093 21.5656 21.7121 20.9584 23.1778 20.9584H26.5278C28.0353 20.9584 29.2496 22.1728 29.2496 23.6803C29.2496 24.6225 28.8728 25.5228 28.2028 26.1928L27.3443 27.0513C27.2841 27.1119 27.2365 27.1837 27.2042 27.2628C27.1719 27.3418 27.1554 27.4265 27.1559 27.5119V28.2866C27.1559 28.8728 26.6953 29.3334 26.109 29.3334C25.5228 29.3334 25.0621 28.8728 25.0621 28.2866V24.0991C25.0621 23.5128 24.6015 23.0522 24.0153 23.0522C23.429 23.0522 22.9684 23.5128 22.9684 24.0991V24.4969C22.9684 24.8528 22.6753 25.1459 22.3193 25.1459H20.6862C20.3093 25.1459 20.0162 25.4391 20.0371 25.8159L20.079 26.5488C20.0999 26.9047 19.8068 27.2188 19.4299 27.2188C19.074 27.2188 18.7809 27.5119 18.7809 27.8678V28.2656C18.7809 28.8519 19.2415 29.3125 19.8278 29.3125C20.414 29.3125 20.8746 28.8519 20.8746 28.2656C20.8746 27.6794 21.3353 27.2188 21.9215 27.2188C22.5078 27.2188 22.9684 27.6794 22.9684 28.2656V29.0403C22.9684 29.2078 23.0312 29.3753 23.1568 29.5009L24.6015 30.9456C24.8528 31.1969 24.8528 31.6156 24.6015 31.8669L23.9943 32.4741C23.3453 33.1231 22.4449 33.5 21.5237 33.5C21.1678 33.5 20.8746 33.7931 20.8746 34.1491V34.5469C20.8746 35.1331 20.414 35.5938 19.8278 35.5938C19.2415 35.5938 18.7809 35.1331 18.7809 34.5469V34.1491C18.7809 33.7931 18.4878 33.5 18.1318 33.5H17.3362C16.9803 33.5 16.6871 33.7931 16.6871 34.1491V35.3216C16.6871 35.4891 16.7499 35.6566 16.8756 35.7822L20.6862 39.5928C20.8118 39.7184 20.9793 39.7813 21.1468 39.7813H22.0681C22.6543 39.7813 23.2406 39.9069 23.764 40.1791L26.2137 41.3934C26.7999 41.6656 27.1559 42.2519 27.1559 42.9009C27.1559 43.5291 26.779 44.1153 26.2137 44.4084L24.9365 45.0575C23.7221 45.6647 22.9684 46.8791 22.9684 48.24V49.1822ZM45.9996 40.8491C45.9996 41.4981 46.2299 42.1263 46.6278 42.6288L47.0674 43.1522C47.6956 43.9269 48.7215 44.2828 49.6846 44.0525C49.8268 44.0196 49.9537 43.9396 50.0449 43.8257C50.1361 43.7117 50.1862 43.5703 50.1871 43.4244V42.6497C50.1871 42.3147 50.4384 42.0425 50.7524 42.0006L51.0665 41.9588C51.7156 41.8959 52.2809 42.3984 52.2809 43.0475C52.2809 43.55 52.6368 44.0106 53.1393 44.1153L53.5999 44.22C53.9978 44.3038 54.3746 44.0106 54.3746 43.5919V41.8331C54.3746 40.6816 53.4324 39.7394 52.2809 39.7394H50.4803C50.2918 39.7394 50.1243 39.8231 49.9987 39.9488L49.224 40.8072C49.1358 40.9048 49.02 40.9733 48.892 41.0036C48.764 41.0339 48.6298 41.0246 48.5072 40.977C48.3846 40.9293 48.2793 40.8455 48.2054 40.7366C48.1315 40.6278 48.0925 40.4991 48.0934 40.3675C48.0934 40.0116 47.8003 39.7184 47.4443 39.7184H46.6487C46.2928 39.7603 45.9996 40.0534 45.9996 40.4094V40.8491ZM49.1403 50.25C48.554 50.25 48.0934 49.7894 48.0934 49.2031V47.8003C48.0934 46.8372 48.8681 46.0416 49.8312 46.0416H53.2021C53.8512 46.0416 54.3746 46.565 54.3746 47.2141V49.2031C54.3746 49.7894 53.914 50.25 53.3278 50.25H49.1403Z" fill="#00D26A"/>
</svg>
