<svg width="64" height="68" viewBox="0 0 64 68" fill="none" xmlns="http://www.w3.org/2000/svg">
<path d="M21.3333 56.6666C19.8666 56.6666 18.6106 56.1113 17.5653 55.0007C16.52 53.89 15.9982 52.5564 16 51V45.3333C16 44.5305 16.256 43.8571 16.768 43.3131C17.28 42.7691 17.9129 42.4981 18.6666 42.5H24V36.125C22.4444 36.0305 20.9662 35.6641 19.5653 35.0256C18.1644 34.3872 16.8871 33.4314 15.7333 32.1583V29.0416H12.6666L6.26663 22.2416C5.51108 21.4389 5.1333 20.6125 5.1333 19.7625C5.1333 18.9125 5.51108 18.1569 6.26663 17.4958C7.55552 16.3153 9.14397 15.418 11.032 14.8041C12.92 14.1903 14.9315 13.8833 17.0666 13.8833C18.2666 13.8833 19.4329 13.9778 20.5653 14.1666C21.6977 14.3555 22.8426 14.7097 24 15.2291V14.1666C24 13.3639 24.256 12.6914 24.768 12.1493C25.28 11.6072 25.9129 11.3352 26.6666 11.3333H53.3333C54.0889 11.3333 54.7226 11.6053 55.2346 12.1493C55.7466 12.6933 56.0017 13.3658 56 14.1666V48.1666C56 50.5278 55.2222 52.5347 53.6666 54.1875C52.1111 55.8403 50.2222 56.6666 48 56.6666H21.3333ZM29.3333 42.5H42.6666C43.4222 42.5 44.056 42.772 44.568 43.316C45.08 43.86 45.3351 44.5324 45.3333 45.3333V48.1666C45.3333 48.9694 45.5893 49.6428 46.1013 50.1868C46.6133 50.7308 47.2462 51.0019 48 51C48.7555 51 49.3893 50.728 49.9013 50.184C50.4133 49.64 50.6684 48.9675 50.6666 48.1666V17H29.3333V18.7L44.5333 34.85C44.8444 35.1805 45.056 35.4875 45.168 35.7708C45.28 36.0541 45.3351 36.4083 45.3333 36.8333C45.3333 37.6361 45.0773 38.3095 44.5653 38.8535C44.0533 39.3975 43.4204 39.6685 42.6666 39.6666C42.2666 39.6666 41.9333 39.6071 41.6666 39.4881C41.4 39.3691 41.1111 39.1453 40.8 38.8166L34 31.5916L33.4666 32.1583C32.8444 32.8194 32.1884 33.4097 31.4986 33.9291C30.8089 34.4486 30.0871 34.85 29.3333 35.1333V42.5ZM14.9333 23.375H21.0666V29.4666C21.6 29.8444 22.1555 30.1041 22.7333 30.2458C23.3111 30.3875 23.9111 30.4583 24.5333 30.4583C25.5555 30.4583 26.4782 30.293 27.3013 29.9625C28.1244 29.6319 28.9351 29.0416 29.7333 28.1916L30.2666 27.625L26.5333 23.6583C25.2444 22.2889 23.8 21.2613 22.2 20.5756C20.6 19.89 18.8889 19.5481 17.0666 19.55C16.1777 19.55 15.3333 19.6208 14.5333 19.7625C13.7333 19.9041 12.9333 20.1166 12.1333 20.4L14.9333 23.375ZM21.3333 51H40.4C40.2666 50.575 40.1662 50.1264 40.0986 49.6541C40.0311 49.1819 39.9982 48.6861 40 48.1666H21.3333V51Z" fill="white"/>
</svg>
