<svg width="64" height="68" viewBox="0 0 64 68" fill="none" xmlns="http://www.w3.org/2000/svg">
<rect x="5" y="2" width="59" height="63" rx="29.5" fill="#955425"/>
<path d="M21.3333 56.6667C19.8666 56.6667 18.6106 56.1114 17.5653 55.0007C16.52 53.89 15.9982 52.5565 16 51V45.3334C16 44.5306 16.256 43.8572 16.768 43.3132C17.28 42.7692 17.9129 42.4982 18.6666 42.5H24V36.125C22.4444 36.0306 20.9662 35.6642 19.5653 35.0257C18.1644 34.3873 16.8871 33.4315 15.7333 32.1584V29.0417H12.6666L6.26663 22.2417C5.51108 21.4389 5.1333 20.6125 5.1333 19.7625C5.1333 18.9125 5.51108 18.157 6.26663 17.4959C7.55552 16.3153 9.14397 15.4181 11.032 14.8042C12.92 14.1903 14.9315 13.8834 17.0666 13.8834C18.2666 13.8834 19.4329 13.9778 20.5653 14.1667C21.6977 14.3556 22.8426 14.7098 24 15.2292V14.1667C24 13.3639 24.256 12.6915 24.768 12.1494C25.28 11.6073 25.9129 11.3353 26.6666 11.3334H53.3333C54.0889 11.3334 54.7226 11.6054 55.2346 12.1494C55.7466 12.6934 56.0017 13.3658 56 14.1667V48.1667C56 50.5278 55.2222 52.5348 53.6666 54.1875C52.1111 55.8403 50.2222 56.6667 48 56.6667H21.3333ZM29.3333 42.5H42.6666C43.4222 42.5 44.056 42.772 44.568 43.316C45.08 43.86 45.3351 44.5325 45.3333 45.3334V48.1667C45.3333 48.9695 45.5893 49.6429 46.1013 50.1869C46.6133 50.7309 47.2462 51.0019 48 51C48.7555 51 49.3893 50.728 49.9013 50.184C50.4133 49.64 50.6684 48.9676 50.6666 48.1667V17H29.3333V18.7L44.5333 34.85C44.8444 35.1806 45.056 35.4875 45.168 35.7709C45.28 36.0542 45.3351 36.4084 45.3333 36.8334C45.3333 37.6362 45.0773 38.3095 44.5653 38.8535C44.0533 39.3975 43.4204 39.6686 42.6666 39.6667C42.2666 39.6667 41.9333 39.6072 41.6666 39.4882C41.4 39.3692 41.1111 39.1454 40.8 38.8167L34 31.5917L33.4666 32.1584C32.8444 32.8195 32.1884 33.4098 31.4986 33.9292C30.8089 34.4487 30.0871 34.85 29.3333 35.1334V42.5ZM14.9333 23.375H21.0666V29.4667C21.6 29.8445 22.1555 30.1042 22.7333 30.2459C23.3111 30.3875 23.9111 30.4584 24.5333 30.4584C25.5555 30.4584 26.4782 30.2931 27.3013 29.9625C28.1244 29.632 28.9351 29.0417 29.7333 28.1917L30.2666 27.625L26.5333 23.6584C25.2444 22.2889 23.8 21.2614 22.2 20.5757C20.6 19.89 18.8889 19.5482 17.0666 19.55C16.1777 19.55 15.3333 19.6209 14.5333 19.7625C13.7333 19.9042 12.9333 20.1167 12.1333 20.4L14.9333 23.375ZM21.3333 51H40.4C40.2666 50.575 40.1662 50.1264 40.0986 49.6542C40.0311 49.182 39.9982 48.6862 40 48.1667H21.3333V51Z" fill="white"/>
</svg>
