<svg width="52" height="54" viewBox="0 0 52 54" fill="none" xmlns="http://www.w3.org/2000/svg">
<path d="M50.9925 46.2797C49.8306 44.5627 47.2631 43.6472 45.3009 43.7021C44.5006 43.7232 43.7653 43.9468 43.2088 44.4488C42.5669 44.3053 41.99 44.0396 41.7625 43.5249C41.5797 43.1241 41.7097 42.6474 41.9453 41.9175C42.185 41.1793 42.4572 40.3397 42.1769 39.4453C41.8234 38.3232 40.6534 36.9774 36.9769 37.0407C36.5788 37.0449 36.2538 37.3866 36.2619 37.8043C36.2659 38.2177 36.5909 38.551 36.985 38.551H36.9972C39.13 38.5172 40.5153 39.0235 40.7956 39.9136C40.9256 40.3313 40.7591 40.8418 40.5681 41.4324C40.3122 42.2128 39.9994 43.1832 40.4463 44.1661C40.8484 45.0521 41.6122 45.5203 42.4409 45.7861C42.1403 47.5243 44.0822 49.3341 45.37 50.123C46.7594 50.971 48.6606 51.5025 50.1963 50.8613C52.1706 50.0471 52.0447 47.8449 50.9925 46.2797ZM36.9403 40.9768H5.79313C5.35845 40.9768 4.93188 41.3353 4.84657 41.7783L3.05907 50.8697C2.97376 51.3085 3.25407 51.6713 3.68876 51.6713H39.0447C39.4753 51.6713 39.7597 51.3127 39.6744 50.8697L37.8869 41.7783C37.7975 41.3353 37.375 40.9768 36.9403 40.9768ZM18.7728 35.6443H12.6913C11.7609 35.6443 11.0013 36.3783 11.0013 37.2811V38.8589H31.3747V37.2811C31.3747 36.3825 30.6109 35.6443 29.6806 35.6443H23.6031V32.8219H39.7963C41.0678 32.8219 42.1119 31.7377 42.1119 30.413V4.74191C42.1119 3.41723 41.0678 2.33301 39.7963 2.33301H2.5797C1.30407 2.33301 0.26001 3.41723 0.26001 4.74191V30.4172C0.26001 31.7419 1.30407 32.8261 2.5797 32.8261H18.7728V35.6443Z" fill="#78A3AD"/>
<path d="M5.06602 26.6077C4.09102 26.6077 3.29883 25.7808 3.29883 24.7683V7.64443C3.29883 6.63193 4.09102 5.80505 5.06602 5.80505H37.306C38.277 5.80505 39.0732 6.63193 39.0732 7.64443V24.7683C39.0732 25.7808 38.277 26.6077 37.306 26.6077H5.06602V26.6077Z" fill="#006CA2"/>
<mask id="mask0_77_532" style="mask-type:luminance" maskUnits="userSpaceOnUse" x="3" y="5" width="37" height="22">
<path d="M5.06602 26.6077C4.09102 26.6077 3.29883 25.7808 3.29883 24.7683V7.64443C3.29883 6.63193 4.09102 5.80505 5.06602 5.80505H37.306C38.277 5.80505 39.0732 6.63193 39.0732 7.64443V24.7683C39.0732 25.7808 38.277 26.6077 37.306 26.6077H5.06602V26.6077Z" fill="white"/>
</mask>
<g mask="url(#mask0_77_532)">
<path d="M20.609 4.78833L13.3453 28.734L2.12061 28.6158V5.0288L20.609 4.78833Z" fill="white"/>
</g>
<path d="M7.58461 43.3224H35.3802C35.8149 43.3224 36.1684 43.6894 36.1684 44.1408C36.1684 44.5922 35.8149 44.9593 35.3802 44.9593H7.58461C7.15398 44.9593 6.79648 44.5922 6.79648 44.1408C6.79648 43.6852 7.15398 43.3224 7.58461 43.3224ZM36.1359 48.9038H6.83305C6.39836 48.9038 6.04492 48.5368 6.04492 48.0854C6.04492 47.634 6.39836 47.2669 6.83305 47.2669H36.1399C36.3489 47.2675 36.5492 47.3542 36.6966 47.5081C36.844 47.662 36.9266 47.8704 36.926 48.0875C36.9255 48.3045 36.8419 48.5125 36.6937 48.6656C36.5456 48.8187 36.3449 48.9044 36.1359 48.9038Z" fill="white"/>
<path d="M37.2288 7.72037V24.6882H5.1432V7.72037H37.2288ZM37.3101 5.80505H5.06602C4.09102 5.80505 3.29883 6.63193 3.29883 7.64443V24.7683C3.29883 25.7808 4.09102 26.6077 5.06602 26.6077H37.306C38.277 26.6077 39.0732 25.7808 39.0732 24.7683V7.64443C39.0732 6.63193 38.277 5.80505 37.3101 5.80505Z" fill="#006CA2"/>
</svg>
