<svg width="54" height="54" viewBox="0 0 54 54" fill="none" xmlns="http://www.w3.org/2000/svg">
<path d="M13.5 2.95312C14.6644 2.95312 15.6094 3.89812 15.6094 5.0625V10.9687H21.5157C22.0751 10.9687 22.6116 11.191 23.0072 11.5866C23.4028 11.9822 23.625 12.5187 23.625 13.0781C23.625 13.6376 23.4028 14.1741 23.0072 14.5697C22.6116 14.9653 22.0751 15.1875 21.5157 15.1875H15.6094V21.9375C15.6094 22.4969 15.3872 23.0335 14.9916 23.4291C14.596 23.8246 14.0595 24.0469 13.5 24.0469C12.9406 24.0469 12.4041 23.8246 12.0085 23.4291C11.6129 23.0335 11.3907 22.4969 11.3907 21.9375V15.1875H5.48441C4.92497 15.1875 4.38844 14.9653 3.99286 14.5697C3.59727 14.1741 3.37503 13.6376 3.37503 13.0781C3.37503 12.5187 3.59727 11.9822 3.99286 11.5866C4.38844 11.191 4.92497 10.9687 5.48441 10.9687H11.3907V5.0625C11.3907 3.89812 12.3357 2.95312 13.5 2.95312ZM23.0074 45.3364L16.4835 38.8125L23.0074 32.2886C23.403 31.893 23.6253 31.3564 23.6253 30.7969C23.6253 30.2374 23.403 29.7008 23.0074 29.3051C22.6118 28.9095 22.0752 28.6872 21.5157 28.6872C20.9561 28.6872 20.4195 28.9095 20.0239 29.3051L13.5 35.829L6.97616 29.3051C6.78026 29.1092 6.54769 28.9538 6.29174 28.8478C6.03578 28.7418 5.76145 28.6872 5.48441 28.6872C4.92489 28.6872 4.3883 28.9095 3.99266 29.3051C3.59702 29.7008 3.37476 30.2374 3.37476 30.7969C3.37476 31.3564 3.59702 31.893 3.99266 32.2886L10.5165 38.8125L3.99266 45.3364C3.79676 45.5323 3.64136 45.7648 3.53534 46.0208C3.42932 46.2767 3.37476 46.5511 3.37476 46.8281C3.37476 47.1052 3.42932 47.3795 3.53534 47.6354C3.64136 47.8914 3.79676 48.124 3.99266 48.3199C4.3883 48.7155 4.92489 48.9378 5.48441 48.9378C5.76145 48.9378 6.03578 48.8832 6.29174 48.7772C6.54769 48.6712 6.78026 48.5158 6.97616 48.3199L13.5 41.796L20.0239 48.3199C20.4195 48.7155 20.9561 48.9378 21.5157 48.9378C22.0752 48.9378 22.6118 48.7155 23.0074 48.3199C23.403 47.9242 23.6253 47.3876 23.6253 46.8281C23.6253 46.2686 23.403 45.732 23.0074 45.3364ZM32.4844 10.9687C31.925 10.9687 31.3884 11.191 30.9929 11.5866C30.5973 11.9822 30.375 12.5187 30.375 13.0781C30.375 13.6376 30.5973 14.1741 30.9929 14.5697C31.3884 14.9653 31.925 15.1875 32.4844 15.1875H48.5157C49.0751 15.1875 49.6116 14.9653 50.0072 14.5697C50.4028 14.1741 50.625 13.6376 50.625 13.0781C50.625 12.5187 50.4028 11.9822 50.0072 11.5866C49.6116 11.191 49.0751 10.9687 48.5157 10.9687H32.4844ZM32.4844 36.2812C31.925 36.2812 31.3884 36.5035 30.9929 36.8991C30.5973 37.2947 30.375 37.8312 30.375 38.3906C30.375 38.9501 30.5973 39.4866 30.9929 39.8822C31.3884 40.2778 31.925 40.5 32.4844 40.5H48.5157C49.0751 40.5 49.6116 40.2778 50.0072 39.8822C50.4028 39.4866 50.625 38.9501 50.625 38.3906C50.625 37.8312 50.4028 37.2947 50.0072 36.8991C49.6116 36.5035 49.0751 36.2812 48.5157 36.2812H32.4844ZM43.875 31.2187C43.875 32.1139 43.5194 32.9723 42.8865 33.6052C42.2536 34.2382 41.3951 34.5937 40.5 34.5937C39.6049 34.5937 38.7465 34.2382 38.1135 33.6052C37.4806 32.9723 37.125 32.1139 37.125 31.2187C37.125 30.3236 37.4806 29.4652 38.1135 28.8323C38.7465 28.1993 39.6049 27.8437 40.5 27.8437C41.3951 27.8437 42.2536 28.1993 42.8865 28.8323C43.5194 29.4652 43.875 30.3236 43.875 31.2187ZM40.5 48.9375C41.3951 48.9375 42.2536 48.5819 42.8865 47.949C43.5194 47.316 43.875 46.4576 43.875 45.5625C43.875 44.6674 43.5194 43.8089 42.8865 43.176C42.2536 42.5431 41.3951 42.1875 40.5 42.1875C39.6049 42.1875 38.7465 42.5431 38.1135 43.176C37.4806 43.8089 37.125 44.6674 37.125 45.5625C37.125 46.4576 37.4806 47.316 38.1135 47.949C38.7465 48.5819 39.6049 48.9375 40.5 48.9375Z" fill="white"/>
</svg>
