<svg width="60" height="60" viewBox="0 0 60 60" fill="none" xmlns="http://www.w3.org/2000/svg">
<path d="M49.6968 57.0375H16.9593C16.1812 57.0375 16.3687 56.4047 16.3687 55.6266V6.58599C16.3687 5.80786 17.0015 5.17505 17.7796 5.17505H50.2921C51.5671 5.17505 52.6031 6.21099 52.6031 7.48599V54.2485C52.6031 56.0579 51.7453 57.0375 49.6968 57.0375Z" fill="#D68B52"/>
<path d="M8.68604 53.9719C8.68604 54.8813 10.1251 55.6453 11.0345 55.6453L48.7173 55.6219C50.1142 55.6219 50.8454 54.8813 50.8454 53.9719L50.7282 43.9781H8.68604V53.9719Z" fill="#94C6D6"/>
<path d="M47.5642 49.6312C47.5642 49.6312 46.5657 52.3734 47.5782 53.7469C48.7548 55.3406 50.8079 54.9562 50.8079 54.2109V7.70625C50.8079 7.39688 50.522 7.17187 50.222 7.2375C49.5704 7.37812 48.3985 7.38281 46.8423 6.35156L47.5642 49.6312Z" fill="#F5F5F5"/>
<path d="M44.1376 51.9609H11.0813V3.02344H44.9485C46.0125 3.02344 46.7626 3.30937 47.1141 3.78281C47.5735 4.39687 47.8172 5.32969 47.8172 6.35156V48.2813C47.8172 49.2572 47.4296 50.1931 46.7395 50.8832C46.0494 51.5733 45.1135 51.9609 44.1376 51.9609Z" fill="#D68B52"/>
<path d="M43.1297 50.5218H11.9719C10.6781 50.5218 9.63281 49.4718 9.63281 48.1828V5.36714C9.63281 4.07339 10.6828 3.02808 11.9719 3.02808H43.1297C44.9203 3.02808 46.3734 4.04995 46.3734 6.27183V47.2828C46.3688 49.0687 44.9203 50.5218 43.1297 50.5218Z" fill="#ECB354"/>
<path d="M16.139 51.4453L16.1155 3.02816H10.8655C10.8655 3.02816 9.78271 2.84066 9.06084 3.02816C7.75303 3.37035 7.39209 4.32191 7.39209 5.87347V50.1282C7.39209 53.2688 7.58428 54.6282 8.53584 55.6219C8.47959 54.9 8.94365 52.4203 9.32334 51.7407C9.66084 51.1407 16.139 51.4453 16.139 51.4453Z" fill="#BA793E"/>
<path d="M10.8657 3.02344V51.9609" stroke="#6D4C41" stroke-width="2" stroke-miterlimit="10"/>
<path d="M16.1157 51.2532L10.8188 51.3563C9.05161 51.3563 8.44692 53.25 8.76098 54.5016C9.15473 56.0813 10.786 56.3391 11.1891 56.3391H17.1188" stroke="#6D4C41" stroke-width="3" stroke-miterlimit="10"/>
<path d="M40.2421 14.8594C40.2421 14.4562 39.9328 14.1234 39.5296 14.0906C37.7578 13.95 36.075 13.2937 34.5843 12.3C33.5981 11.6454 32.4399 11.2979 31.2562 11.3015C30.0234 11.3015 28.8796 11.6719 27.9281 12.3C26.4375 13.289 24.75 13.9453 22.9828 14.0859C22.5796 14.1187 22.2703 14.4515 22.2703 14.8547V19.5234C22.2703 19.9265 22.5796 20.2594 22.9828 20.2922C24.7546 20.4328 26.4375 21.089 27.9281 22.0781C28.8796 22.7109 30.0234 23.0765 31.2562 23.0765C32.489 23.0765 33.6328 22.7062 34.5843 22.0781C36.075 21.089 37.7625 20.4328 39.5296 20.2875C39.9328 20.2547 40.2421 19.9219 40.2421 19.5187V14.8594Z" fill="#FFFDE7"/>
<path d="M40.2422 18.9843C40.2329 19.0171 39.9891 19.3218 38.6907 19.4531C38.1469 19.5093 37.6219 19.6687 37.1016 19.8328C36.0282 20.175 35.0063 20.6812 34.0688 21.3046C33.2391 21.8578 32.2641 22.1484 31.2563 22.1484C30.2485 22.1484 29.2969 21.8203 28.4438 21.3046C26.0063 19.8281 24.6657 19.5515 23.7188 19.439C22.5047 19.2937 22.261 18.9656 22.261 18.9656C22.261 18.9656 22.2657 19.3218 22.2657 19.5328C22.2657 19.9359 22.575 20.2687 22.9782 20.3015C24.75 20.4421 26.4329 21.0984 27.9235 22.0875C28.875 22.7203 30.0188 23.0859 31.2516 23.0859C32.4844 23.0859 33.6282 22.7156 34.5797 22.0875C36.0704 21.0984 37.7579 20.4421 39.525 20.2968C39.9282 20.264 40.2375 19.9312 40.2375 19.5281C40.2422 19.3734 40.2422 18.9843 40.2422 18.9843Z" fill="#D68B52"/>
<path d="M22.2656 15.3844C22.2656 15.3844 22.7719 15.0516 23.8172 14.9344C24.3563 14.8735 24.8859 14.7188 25.4063 14.5547C26.4797 14.2126 27.5016 13.7063 28.4391 13.0829C29.2687 12.5297 30.2437 12.2391 31.2516 12.2391C32.2594 12.2391 33.2297 12.5297 34.0641 13.0829C35.025 13.7204 36.4734 14.6579 38.7891 14.9485C39.0047 14.9766 39.8813 14.9063 40.2422 15.5297C40.2422 15.5297 40.2375 15.0657 40.2375 14.8594C40.2375 14.4563 39.9281 14.1235 39.525 14.0907C37.7531 13.9501 36.0703 13.2938 34.5797 12.3047C33.5934 11.6502 32.4353 11.3027 31.2516 11.3063C30.0187 11.3063 28.875 11.6766 27.9234 12.3047C26.4328 13.2938 24.7453 13.9501 22.9781 14.0954C22.575 14.1282 22.2656 14.461 22.2656 14.8641V15.3844Z" fill="#FFECB3"/>
</svg>
