<svg width="56" height="56" viewBox="0 0 56 56" fill="none" xmlns="http://www.w3.org/2000/svg">
<path d="M21.795 53C20.5701 49.0055 18.7223 46.0276 16.2514 44.0663C12.545 41.1245 6.65604 42.9528 4.48073 39.9185C2.30542 36.884 6.00478 31.3037 7.30293 28.0111C8.60108 24.7186 2.32724 23.5543 3.0597 22.6196C3.54803 21.9965 6.71839 20.1982 12.5709 17.225C14.2338 7.74165 20.376 3 30.9978 3C46.9301 3 53 16.5075 53 25.0986C53 33.6898 45.6501 42.9452 35.1801 44.9408C34.2439 46.3043 35.5943 48.9907 39.231 53" stroke="white" stroke-width="4.667" stroke-linecap="round" stroke-linejoin="round"/>
<path fill-rule="evenodd" clip-rule="evenodd" d="M22.3746 16.1248C21.558 19.2927 21.801 21.5171 23.1036 22.7979C24.4062 24.0789 26.6264 24.9166 29.764 25.3109C29.0521 29.3968 29.9201 31.3137 32.3677 31.0614C34.8155 30.8092 36.2861 29.7922 36.7799 28.0102C40.6052 29.0853 42.6785 28.1856 42.9996 25.3109C43.4815 20.9989 41.1562 17.5592 40.203 17.5592C39.2496 17.5592 36.7799 17.4432 36.7799 16.1248C36.7799 14.8063 33.8949 14.0614 31.2911 14.0614C28.6874 14.0614 30.2544 12.3063 26.679 12.9998C24.2954 13.4621 22.8606 14.5037 22.3746 16.1248Z" fill="#2F88FF" stroke="white" stroke-width="4" stroke-linejoin="round"/>
<path d="M36.1253 29.875C34.8541 30.6639 33.1098 31.9754 32.3753 33C30.5391 35.5619 29.0498 37.1218 28.7239 38.7601" stroke="white" stroke-width="4" stroke-linecap="round"/>
</svg>
