<svg width="66" height="62" viewBox="0 0 66 62" fill="none" xmlns="http://www.w3.org/2000/svg">
<rect y="5" width="56" height="53" rx="26.5" fill="#37FFAB"/>
<path d="M33.5 12C33.5 5.64873 38.6487 0.5 45 0.5H46C52.3513 0.5 57.5 5.64873 57.5 12C57.5 18.3513 52.3513 23.5 46 23.5H45C38.6487 23.5 33.5 18.3513 33.5 12Z" fill="#37FFAB"/>
<rect x="46" y="40" width="20" height="19" rx="9.5" fill="#37FFAB"/>
<path d="M46.9065 16.1078C46.6229 16.113 46.3377 16.1516 46.0534 16.2271C45.1766 16.46 44.4696 17.0047 43.9375 17.727C32.3202 21.5114 21.305 25.0015 9.79224 28.7094C5.68122 30.0334 3.10513 34.0056 4.30529 37.6929C5.50576 41.3801 9.93054 43.1044 14.0394 41.7587L14.0392 41.7589C25.3648 38.0502 36.2354 34.6126 47.6942 30.9254C47.7521 30.9473 47.8112 30.9657 47.8695 30.9854C47.5983 31.2892 47.4321 31.6889 47.4321 32.1282C47.4321 33.0768 48.2012 33.8459 49.1498 33.8459C50.0985 33.8459 50.8678 33.0767 50.8678 32.1282C50.8678 31.681 50.6955 31.2752 50.4157 30.9697C51.7355 30.4661 52.6261 29.2238 53.059 27.7712C53.5297 26.1919 53.5252 24.2875 52.9985 22.3387C52.4718 20.3898 51.5155 18.7395 50.3133 17.6068C49.4115 16.7574 48.3193 16.1794 47.1897 16.1131C47.0955 16.1077 47.0011 16.1059 46.9065 16.1075V16.1078ZM46.958 18.0415C47.0055 18.0408 47.0531 18.042 47.1005 18.0451C47.6768 18.0822 48.3239 18.3909 48.9866 19.0151C49.8701 19.8473 50.6884 21.206 51.131 22.8437C51.5059 24.2308 51.5451 25.5762 51.3393 26.6585H45.8754C45.5113 26.0159 45.2013 25.2763 44.9829 24.4683C44.5403 22.8304 44.5641 21.2496 44.9088 20.0931C45.2535 18.9366 45.8531 18.2819 46.55 18.0968C46.6832 18.0616 46.8202 18.0429 46.9579 18.0413L46.958 18.0415ZM42.9815 19.8057C42.5866 21.3309 42.6176 23.132 43.1151 24.9732C43.2701 25.5484 43.4683 26.111 43.708 26.6564H28.0544C21.3874 28.8035 15.0263 30.8495 11.1451 32.1003C8.73939 32.8752 7.4855 34.9373 7.99759 36.5093C8.50958 38.0815 10.7492 39.0282 13.1475 38.2432C20.0717 35.9772 33.7481 31.5778 44.4943 28.1191C44.8835 28.7202 45.3222 29.2543 45.8007 29.7052C45.8075 29.7114 45.8146 29.7174 45.8214 29.7239C34.9651 33.2178 20.8058 37.7712 13.7491 40.0806C10.5581 41.1251 7.08024 39.9425 6.15688 37.1076C5.23352 34.2729 7.35797 31.288 10.5499 30.2596C17.5946 27.9895 32.1018 23.3244 42.9815 19.8057ZM49.149 38.4598C47.3946 45.0076 44.9559 44.0985 44.9559 47.9314C44.9559 50.246 46.8343 52.1246 49.149 52.1246C51.4636 52.1246 53.3421 50.2461 53.3421 47.9314C53.3421 43.7939 50.9347 45.1241 49.149 38.4598Z" fill="#343434"/>
</svg>
