<svg width="53" height="53" viewBox="0 0 53 53" fill="none" xmlns="http://www.w3.org/2000/svg">
<path d="M44.9065 7.10777C44.6229 7.11294 44.3377 7.15155 44.0534 7.22702C43.1766 7.45993 42.4696 8.00463 41.9375 8.72696C30.3202 12.5114 19.305 16.0014 7.79224 19.7093C3.68122 21.0333 1.10513 25.0055 2.30529 28.6928C3.50576 32.3801 7.93054 34.1043 12.0394 32.7586L12.0392 32.7588C23.3648 29.0502 34.2354 25.6125 45.6942 21.9253C45.7521 21.9473 45.8112 21.9657 45.8695 21.9853C45.5983 22.2892 45.4321 22.6888 45.4321 23.1282C45.4321 24.0768 46.2012 24.8458 47.1498 24.8458C48.0985 24.8458 48.8678 24.0767 48.8678 23.1282C48.8678 22.681 48.6955 22.2752 48.4157 21.9696C49.7355 21.466 50.6261 20.2237 51.059 18.7712C51.5297 17.1918 51.5252 15.2875 50.9985 13.3387C50.4718 11.3897 49.5155 9.73944 48.3133 8.60678C47.4115 7.75733 46.3193 7.1793 45.1897 7.11305C45.0955 7.10766 45.0011 7.1058 44.9065 7.10746V7.10777ZM44.958 9.04144C45.0055 9.04074 45.0531 9.04195 45.1005 9.04506C45.6768 9.08212 46.3239 9.3908 46.9866 10.015C47.8701 10.8473 48.6884 12.2059 49.131 13.8436C49.5059 15.2307 49.5451 16.5761 49.3393 17.6584H43.8754C43.5113 17.0159 43.2013 16.2762 42.9829 15.4682C42.5403 13.8304 42.5641 12.2495 42.9088 11.093C43.2535 9.93654 43.8531 9.2818 44.55 9.09672C44.6832 9.06149 44.8202 9.04285 44.9579 9.04123L44.958 9.04144ZM40.9815 10.8057C40.5866 12.3309 40.6176 14.1319 41.1151 15.9732C41.2701 16.5483 41.4683 17.111 41.708 17.6563H26.0544C19.3874 19.8034 13.0263 21.8494 9.14509 23.1002C6.73939 23.8751 5.4855 25.9373 5.99759 27.5092C6.50958 29.0814 8.74925 30.0281 11.1475 29.2431C18.0717 26.9772 31.7481 22.5778 42.4943 19.119C42.8835 19.7201 43.3222 20.2543 43.8007 20.7052C43.8075 20.7114 43.8146 20.7174 43.8214 20.7238C32.9651 24.2178 18.8058 28.7711 11.7491 31.0805C8.55805 32.125 5.08024 30.9424 4.15688 28.1076C3.23352 25.2728 5.35797 22.2879 8.54987 21.2595C15.5946 18.9894 30.1018 14.3244 40.9815 10.8057ZM47.149 29.4597C45.3946 36.0076 42.9559 35.0984 42.9559 38.9314C42.9559 41.246 44.8343 43.1246 47.149 43.1246C49.4636 43.1246 51.3421 41.2461 51.3421 38.9314C51.3421 34.7938 48.9347 36.124 47.149 29.4597Z" fill="#343434"/>
</svg>
