<svg width="49" height="53" viewBox="0 0 49 53" fill="none" xmlns="http://www.w3.org/2000/svg">
<path d="M28.5243 37.409H19.8237V31.3206H13.7354V22.6201H19.8237V16.5317H28.5243V22.6201H34.6126V31.3206H28.5243V37.409Z" stroke="white" stroke-width="1.5" stroke-linecap="round" stroke-linejoin="round"/>
<path d="M5.90617 42.6283L1.02612 8.47576C0.933269 7.82565 1.08994 7.16449 1.46465 6.62518C1.83936 6.08587 2.40433 5.70838 3.04599 5.56861L23.0411 1.12437C23.7871 0.958544 24.5604 0.958544 25.3063 1.12437L45.3015 5.57122C46.6324 5.86611 47.5145 7.12657 47.3213 8.47837L42.4413 42.6283C42.2586 43.9201 41.1365 51.7621 24.1737 51.7621C7.21099 51.7621 6.08884 43.9201 5.90617 42.6283Z" stroke="white" stroke-width="1.5" stroke-linecap="round" stroke-linejoin="round"/>
</svg>
