<svg width="53" height="56" viewBox="0 0 53 56" fill="none" xmlns="http://www.w3.org/2000/svg">
<rect x="23" y="17" width="8" height="21" fill="#FF4040"/>
<rect x="23" y="17" width="8" height="21" fill="#FF4040"/>
<rect x="23" y="17" width="8" height="21" fill="#FF4040"/>
<rect x="17" y="23" width="20" height="9" fill="#FF4040"/>
<path d="M31.5243 37.409H22.8237V31.3206H16.7354V22.6201H22.8237V16.5317H31.5243V22.6201H37.6126V31.3206H31.5243V37.409Z" stroke="white" stroke-width="1.5" stroke-linecap="round" stroke-linejoin="round"/>
<path d="M8.90617 42.6283L4.02612 8.47576C3.93327 7.82565 4.08994 7.16449 4.46465 6.62518C4.83936 6.08587 5.40433 5.70838 6.04599 5.56861L26.0411 1.12437C26.7871 0.958544 27.5604 0.958544 28.3063 1.12437L48.3015 5.57122C49.6324 5.86611 50.5145 7.12657 50.3213 8.47837L45.4413 42.6283C45.2586 43.9201 44.1365 51.7621 27.1737 51.7621C10.211 51.7621 9.08884 43.9201 8.90617 42.6283Z" stroke="white" stroke-width="1.5" stroke-linecap="round" stroke-linejoin="round"/>
</svg>
